<svg width="96" height="41" viewBox="0 0 96 41" fill="none" xmlns="http://www.w3.org/2000/svg">
<path d="M11.1502 8.40752V19.0246C11.1502 20.6683 10.6837 21.9343 9.75085 22.8228C8.83278 23.7113 7.58893 24.1555 6.01932 24.1555C4.37567 24.1555 3.05778 23.689 2.06567 22.7562C1.07356 21.8233 0.577499 20.498 0.577499 18.7803H4.35346C4.35346 19.4318 4.48672 19.9279 4.75326 20.2685C5.0198 20.5942 5.4048 20.7571 5.90826 20.7571C6.3673 20.7571 6.72268 20.609 6.97441 20.3129C7.22614 20.0167 7.35201 19.5873 7.35201 19.0246V8.40752H11.1502ZM19.8599 24.1777C18.6456 24.1777 17.5499 23.9186 16.5726 23.4003C15.6101 22.882 14.8475 22.1416 14.2848 21.1791C13.7369 20.2166 13.463 19.0913 13.463 17.803C13.463 16.5295 13.7443 15.4116 14.307 14.4491C14.8697 13.4717 15.6397 12.724 16.617 12.2057C17.5943 11.6874 18.6901 11.4283 19.9043 11.4283C21.1185 11.4283 22.2143 11.6874 23.1916 12.2057C24.1689 12.724 24.9389 13.4717 25.5016 14.4491C26.0643 15.4116 26.3456 16.5295 26.3456 17.803C26.3456 19.0764 26.0569 20.2018 25.4794 21.1791C24.9167 22.1416 24.1393 22.882 23.1472 23.4003C22.1699 23.9186 21.0741 24.1777 19.8599 24.1777ZM19.8599 20.8904C20.5854 20.8904 21.2 20.6239 21.7034 20.0908C22.2217 19.5577 22.4808 18.7951 22.4808 17.803C22.4808 16.8109 22.2291 16.0483 21.7256 15.5152C21.237 14.9821 20.6299 14.7156 19.9043 14.7156C19.1639 14.7156 18.5494 14.9821 18.0607 15.5152C17.5721 16.0335 17.3278 16.7961 17.3278 17.803C17.3278 18.7951 17.5647 19.5577 18.0385 20.0908C18.5272 20.6239 19.1343 20.8904 19.8599 20.8904ZM27.6054 17.7808C27.6054 16.5073 27.8424 15.3893 28.3162 14.4268C28.8049 13.4643 29.4638 12.724 30.293 12.2057C31.1223 11.6874 32.0477 11.4283 33.0695 11.4283C33.9431 11.4283 34.7057 11.606 35.3573 11.9614C36.0236 12.3167 36.5345 12.7832 36.8898 13.3607V11.606H40.688V24H36.8898V22.2453C36.5197 22.8228 36.0014 23.2892 35.335 23.6446C34.6835 24 33.9209 24.1777 33.0473 24.1777C32.0403 24.1777 31.1223 23.9186 30.293 23.4003C29.4638 22.8672 28.8049 22.1194 28.3162 21.1569C27.8424 20.1796 27.6054 19.0542 27.6054 17.7808ZM36.8898 17.803C36.8898 16.8553 36.6233 16.1075 36.0902 15.5596C35.572 15.0117 34.9352 14.7378 34.18 14.7378C33.4249 14.7378 32.7807 15.0117 32.2476 15.5596C31.7294 16.0927 31.4702 16.8331 31.4702 17.7808C31.4702 18.7285 31.7294 19.4837 32.2476 20.0464C32.7807 20.5942 33.4249 20.8682 34.18 20.8682C34.9352 20.8682 35.572 20.5942 36.0902 20.0464C36.6233 19.4985 36.8898 18.7507 36.8898 17.803ZM30.1598 10.562C30.5151 8.3705 31.5369 7.27473 33.2249 7.27473C33.5507 7.27473 33.8321 7.32656 34.069 7.43021C34.3207 7.51906 34.6243 7.65973 34.9797 7.85223C35.2462 8.00031 35.4609 8.11137 35.6238 8.18541C35.7867 8.24464 35.957 8.27425 36.1347 8.27425C36.6825 8.27425 37.0009 7.94108 37.0897 7.27473H39.0444C38.689 9.46627 37.6672 10.562 35.9792 10.562C35.6534 10.562 35.3647 10.5176 35.1129 10.4288C34.876 10.3251 34.5798 10.177 34.2245 9.98454C33.9579 9.83646 33.7432 9.73281 33.5803 9.67358C33.4174 9.59954 33.2472 9.56252 33.0695 9.56252C32.5216 9.56252 32.1958 9.89569 32.0922 10.562H30.1598ZM49.0775 24.1777C47.8633 24.1777 46.7675 23.9186 45.7902 23.4003C44.8277 22.882 44.0651 22.1416 43.5025 21.1791C42.9546 20.2166 42.6806 19.0913 42.6806 17.803C42.6806 16.5295 42.962 15.4116 43.5247 14.4491C44.0874 13.4717 44.8574 12.724 45.8347 12.2057C46.812 11.6874 47.9077 11.4283 49.122 11.4283C50.3362 11.4283 51.432 11.6874 52.4093 12.2057C53.3866 12.724 54.1566 13.4717 54.7193 14.4491C55.282 15.4116 55.5633 16.5295 55.5633 17.803C55.5633 19.0764 55.2746 20.2018 54.6971 21.1791C54.1344 22.1416 53.357 22.882 52.3648 23.4003C51.3875 23.9186 50.2918 24.1777 49.0775 24.1777ZM49.0775 20.8904C49.8031 20.8904 50.4176 20.6239 50.9211 20.0908C51.4394 19.5577 51.6985 18.7951 51.6985 17.803C51.6985 16.8109 51.4468 16.0483 50.9433 15.5152C50.4547 14.9821 49.8475 14.7156 49.122 14.7156C48.3816 14.7156 47.7671 14.9821 47.2784 15.5152C46.7898 16.0335 46.5454 16.7961 46.5454 17.803C46.5454 18.7951 46.7824 19.5577 47.2562 20.0908C47.7449 20.6239 48.352 20.8904 49.0775 20.8904Z" fill="white"/>
<path d="M37.4972 36.1341C36.9038 36.1341 36.3624 35.9964 35.873 35.7211C35.3835 35.4397 34.9951 35.0512 34.7075 34.5557C34.4261 34.054 34.2854 33.4912 34.2854 32.8672C34.2854 32.2432 34.4261 31.6834 34.7075 31.1879C34.9951 30.6862 35.3835 30.2978 35.873 30.0225C36.3624 29.741 36.9038 29.6003 37.4972 29.6003C38.0968 29.6003 38.6412 29.741 39.1307 30.0225C39.6201 30.2978 40.0055 30.6832 40.2869 31.1787C40.5683 31.6742 40.709 32.2371 40.709 32.8672C40.709 33.4973 40.5683 34.0602 40.2869 34.5557C40.0055 35.0512 39.6201 35.4397 39.1307 35.7211C38.6412 35.9964 38.0968 36.1341 37.4972 36.1341ZM37.4972 35.4091C37.9438 35.4091 38.3445 35.3051 38.6994 35.0971C39.0603 34.8891 39.3417 34.5924 39.5436 34.207C39.7516 33.8216 39.8556 33.375 39.8556 32.8672C39.8556 32.3533 39.7516 31.9067 39.5436 31.5274C39.3417 31.142 39.0634 30.8453 38.7085 30.6373C38.3537 30.4293 37.9499 30.3253 37.4972 30.3253C37.0445 30.3253 36.6407 30.4293 36.2859 30.6373C35.9311 30.8453 35.6497 31.142 35.4417 31.5274C35.2398 31.9067 35.1388 32.3533 35.1388 32.8672C35.1388 33.375 35.2398 33.8216 35.4417 34.207C35.6497 34.5924 35.9311 34.8891 36.2859 35.0971C36.6469 35.3051 37.0506 35.4091 37.4972 35.4091ZM51.2541 29.6737V30.3528H49.5106V36.0698H48.6755V30.3528H46.9228V29.6737H51.2541ZM61.5688 34.6475H58.7791L58.2652 36.0698H57.3842L59.6967 29.7105H60.6603L62.9636 36.0698H62.0827L61.5688 34.6475ZM61.3302 33.9684L60.1739 30.7382L59.0177 33.9684H61.3302ZM61.0732 28.2881L59.1186 29.3342V28.7102L61.0732 27.5631V28.2881ZM74.7631 29.6737L72.3497 36.0698H71.3861L68.9727 29.6737H69.8628L71.8725 35.1889L73.8822 29.6737H74.7631ZM82.0198 29.6737V36.0698H81.1847V29.6737H82.0198ZM91.8488 36.1341C91.2553 36.1341 90.7139 35.9964 90.2245 35.7211C89.7351 35.4397 89.3466 35.0512 89.0591 34.5557C88.7777 34.054 88.637 33.4912 88.637 32.8672C88.637 32.2432 88.7777 31.6834 89.0591 31.1879C89.3466 30.6862 89.7351 30.2978 90.2245 30.0225C90.7139 29.741 91.2553 29.6003 91.8488 29.6003C92.4483 29.6003 92.9928 29.741 93.4822 30.0225C93.9716 30.2978 94.357 30.6832 94.6385 31.1787C94.9199 31.6742 95.0606 32.2371 95.0606 32.8672C95.0606 33.4973 94.9199 34.0602 94.6385 34.5557C94.357 35.0512 93.9716 35.4397 93.4822 35.7211C92.9928 35.9964 92.4483 36.1341 91.8488 36.1341ZM91.8488 35.4091C92.2954 35.4091 92.6961 35.3051 93.0509 35.0971C93.4118 34.8891 93.6933 34.5924 93.8951 34.207C94.1031 33.8216 94.2072 33.375 94.2072 32.8672C94.2072 32.3533 94.1031 31.9067 93.8951 31.5274C93.6933 31.142 93.4149 30.8453 93.0601 30.6373C92.7052 30.4293 92.3015 30.3253 91.8488 30.3253C91.3961 30.3253 90.9923 30.4293 90.6375 30.6373C90.2826 30.8453 90.0012 31.142 89.7932 31.5274C89.5913 31.9067 89.4904 32.3533 89.4904 32.8672C89.4904 33.375 89.5913 33.8216 89.7932 34.207C90.0012 34.5924 90.2826 34.8891 90.6375 35.0971C90.9984 35.3051 91.4022 35.4091 91.8488 35.4091Z" fill="white"/>
</svg>
